<svg width="267" height="150" viewBox="0 0 267 150" fill="none" xmlns="http://www.w3.org/2000/svg">
<path d="M22.456 41.352C22.712 39.752 22.84 38.472 22.84 37.512C22.84 36.84 22.776 36.312 22.648 35.928C22.552 35.544 22.424 35.352 22.264 35.352C21.784 35.352 21.224 35.752 20.584 36.552C19.976 37.352 19.448 38.312 19 39.432C18.584 40.52 18.376 41.496 18.376 42.36C18.376 43.448 18.904 44.552 19.96 45.672C21.048 46.76 22.632 48.104 24.712 49.704C26.28 50.856 27.448 51.816 28.216 52.584C28.984 53.32 29.384 53.992 29.416 54.6C29.448 55.944 28.744 57.272 27.304 58.584C25.864 59.864 24.056 60.92 21.88 61.752C19.736 62.584 17.736 63 15.88 63C14.44 63 12.952 62.648 11.416 61.944C9.88 61.208 8.6 60.36 7.576 59.4C6.552 58.408 6.024 57.544 5.992 56.808C5.928 55.4 6.392 54.264 7.384 53.4C8.376 52.504 9.704 52.056 11.368 52.056C12.2 52.056 13.048 52.168 13.912 52.392C14.296 54.504 14.632 56.024 14.92 56.952C16.808 56.472 18.856 55.64 21.064 54.456C13.928 49.048 10.36 44.824 10.36 41.784C10.36 40.312 10.904 38.552 11.992 36.504C13.08 34.424 14.52 32.648 16.312 31.176C18.104 29.672 19.992 28.92 21.976 28.92C23.448 28.92 24.872 29.416 26.248 30.408C27.624 31.4 28.744 32.616 29.608 34.056C30.472 35.496 30.904 36.84 30.904 38.088C30.904 39.304 30.408 40.28 29.416 41.016C28.456 41.72 27.256 42.072 25.816 42.072C24.696 42.072 23.576 41.832 22.456 41.352ZM57.754 29.4C58.362 29.752 58.81 30.248 59.098 30.888C59.418 31.496 59.578 32.168 59.578 32.904C59.578 33.544 59.45 34.184 59.194 34.824C58.938 35.464 58.602 35.992 58.186 36.408C57.706 36.376 56.986 36.36 56.026 36.36C55.418 36.36 54.314 36.392 52.714 36.456L50.17 36.504C50.33 35.576 49.946 37.736 49.018 42.984L48.058 48.456C47.738 50.344 47.402 52.824 47.05 55.896C46.73 58.52 46.442 60.36 46.186 61.416C45.962 62.472 45.594 63 45.082 63C44.346 63 43.466 62.744 42.442 62.232C41.45 61.688 40.57 61.048 39.802 60.312C39.066 59.576 38.698 58.968 38.698 58.488C38.666 57.752 39.05 55.576 39.85 51.96C40.458 48.92 40.89 46.664 41.146 45.192C41.146 45.256 41.402 43.928 41.914 41.208C42.362 38.776 42.634 37.288 42.73 36.744L35.242 37.656C34.634 37.336 34.138 36.872 33.754 36.264C33.402 35.624 33.226 34.936 33.226 34.2C33.226 32.92 33.722 31.784 34.714 30.792C36.538 30.536 38.81 30.376 41.53 30.312C44.282 30.216 45.914 30.152 46.426 30.12C49.786 30.024 52.234 29.944 53.77 29.88C55.338 29.784 56.666 29.624 57.754 29.4ZM70.9724 28.92C73.3084 28.92 75.5164 29.48 77.5964 30.6C79.7084 31.72 81.3884 33.208 82.6364 35.064C83.9164 36.888 84.5564 38.792 84.5564 40.776C84.5564 43.88 83.7244 47.208 82.0604 50.76C80.3964 54.28 78.2844 57.24 75.7244 59.64C73.1964 62.04 70.7004 63.24 68.2364 63.24C66.9564 63.24 65.5164 62.712 63.9164 61.656C62.3484 60.568 61.0044 59.288 59.8844 57.816C58.7644 56.312 58.2044 54.984 58.2044 53.832C58.2044 52.008 58.7484 48.872 59.8364 44.424C60.9244 39.944 61.9324 36.648 62.8604 34.536C63.9164 34.216 64.9084 34.056 65.8364 34.056C66.4764 34.056 66.9884 34.12 67.3724 34.248C67.3084 33.064 67.5964 31.976 68.2364 30.984C68.8764 29.992 69.7884 29.304 70.9724 28.92ZM66.0284 56.664C69.1004 55.544 71.6764 53.4 73.7564 50.232C75.8364 47.032 77.3084 43.528 78.1724 39.72C77.2764 39.08 76.1084 38.552 74.6684 38.136C73.2604 37.72 71.7404 37.496 70.1084 37.464C70.1724 37.784 70.2364 38.264 70.3004 38.904C67.3564 44.408 65.9324 50.328 66.0284 56.664ZM93.7863 63C93.0503 63 92.1703 62.728 91.1463 62.184C90.1543 61.64 89.2743 61 88.5063 60.264C87.7703 59.528 87.4023 58.92 87.4023 58.44C87.4023 57.608 88.1863 53.368 89.7543 45.72C89.9463 44.824 90.2503 43.304 90.6663 41.16C91.1143 38.984 91.4183 37.416 91.5783 36.456L89.8023 36.744C88.8103 35.816 88.3143 34.648 88.3143 33.24C88.3143 32.248 88.5863 31.224 89.1303 30.168C91.7223 29.496 94.3463 29.16 97.0023 29.16C99.8183 29.16 102.426 29.528 104.826 30.264C107.258 31 109.226 32.136 110.73 33.672C112.234 35.176 112.986 37.064 112.986 39.336C112.986 41.352 112.314 43.272 110.97 45.096C109.658 46.888 107.738 48.376 105.21 49.56C102.682 50.744 99.7063 51.464 96.2823 51.72C96.0583 53.256 95.8823 54.648 95.7543 55.896C95.4663 58.328 95.1943 60.12 94.9383 61.272C94.6823 62.424 94.2983 63 93.7863 63ZM97.0023 45.768C99.7863 45.224 101.93 44.392 103.434 43.272C104.97 42.12 105.738 40.84 105.738 39.432C105.738 38.472 105.258 37.672 104.298 37.032C103.37 36.36 102.106 36.024 100.506 36.024C99.9303 36.024 99.3063 36.072 98.6343 36.168L97.8663 40.68C97.4183 43.208 97.1303 44.904 97.0023 45.768Z" fill="white"/>
<g filter="url(#filter0_d)">
<mask id="path-2-inside-1" fill="white">
<path fill-rule="evenodd" clip-rule="evenodd" d="M205.474 67.6279C205.474 96.6935 181.863 120.256 152.737 120.256C123.611 120.256 100 96.6935 100 67.6279C100 38.5623 123.611 15 152.737 15C181.863 15 205.474 38.5623 205.474 67.6279ZM167.463 100.064C162.973 102.097 157.988 103.229 152.737 103.229C133.034 103.229 117.062 87.2899 117.062 67.6279C117.062 60.2577 119.306 53.4106 123.15 47.73L167.463 100.064ZM182.978 86.5229L139.112 34.7154C143.31 32.9827 147.912 32.0266 152.737 32.0266C172.44 32.0266 188.412 47.9659 188.412 67.6279C188.412 74.5694 186.421 81.047 182.978 86.5229Z"/>
</mask>
<path fill-rule="evenodd" clip-rule="evenodd" d="M205.474 67.6279C205.474 96.6935 181.863 120.256 152.737 120.256C123.611 120.256 100 96.6935 100 67.6279C100 38.5623 123.611 15 152.737 15C181.863 15 205.474 38.5623 205.474 67.6279ZM167.463 100.064C162.973 102.097 157.988 103.229 152.737 103.229C133.034 103.229 117.062 87.2899 117.062 67.6279C117.062 60.2577 119.306 53.4106 123.15 47.73L167.463 100.064ZM182.978 86.5229L139.112 34.7154C143.31 32.9827 147.912 32.0266 152.737 32.0266C172.44 32.0266 188.412 47.9659 188.412 67.6279C188.412 74.5694 186.421 81.047 182.978 86.5229Z" fill="url(#paint0_linear)"/>
<path d="M167.463 100.064L168.7 102.797L172.32 101.158L169.752 98.1257L167.463 100.064ZM123.15 47.73L125.439 45.7914L122.883 42.7717L120.665 46.0488L123.15 47.73ZM139.112 34.7154L137.967 31.9423L134.162 33.5126L136.822 36.654L139.112 34.7154ZM182.978 86.5229L180.689 88.4615L183.337 91.589L185.518 88.1197L182.978 86.5229ZM152.737 123.256C183.514 123.256 208.474 98.3562 208.474 67.6279H202.474C202.474 95.0307 180.212 117.256 152.737 117.256V123.256ZM97 67.6279C97 98.3562 121.96 123.256 152.737 123.256V117.256C125.262 117.256 103 95.0307 103 67.6279H97ZM152.737 12C121.96 12 97 36.8996 97 67.6279H103C103 40.225 125.262 18 152.737 18V12ZM208.474 67.6279C208.474 36.8996 183.514 12 152.737 12V18C180.212 18 202.474 40.225 202.474 67.6279H208.474ZM152.737 106.229C158.423 106.229 163.83 105.003 168.7 102.797L166.225 97.3314C162.117 99.1916 157.553 100.229 152.737 100.229V106.229ZM114.062 67.6279C114.062 88.9526 131.383 106.229 152.737 106.229V100.229C134.685 100.229 120.062 85.6272 120.062 67.6279H114.062ZM120.665 46.0488C116.497 52.2098 114.062 59.6394 114.062 67.6279H120.062C120.062 60.876 122.116 54.6114 125.635 49.4112L120.665 46.0488ZM169.752 98.1257L125.439 45.7914L120.86 49.6686L165.173 102.003L169.752 98.1257ZM136.822 36.654L180.689 88.4615L185.268 84.5844L141.401 32.7768L136.822 36.654ZM152.737 29.0266C147.512 29.0266 142.522 30.0624 137.967 31.9423L140.256 37.4885C144.098 35.903 148.311 35.0266 152.737 35.0266V29.0266ZM191.412 67.6279C191.412 46.3031 174.091 29.0266 152.737 29.0266V35.0266C170.789 35.0266 185.412 49.6286 185.412 67.6279H191.412ZM185.518 88.1197C189.253 82.1798 191.412 75.1511 191.412 67.6279H185.412C185.412 73.9878 183.59 79.9142 180.439 84.9261L185.518 88.1197Z" fill="#1A0000" mask="url(#path-2-inside-1)"/>
</g>
<path d="M22.744 106.168C21.816 106.904 20.616 107.592 19.144 108.232C17.672 108.84 16.52 109.144 15.688 109.144C14.696 109.144 13.544 108.584 12.232 107.464C10.952 106.312 9.864 104.952 8.968 103.384C8.104 101.784 7.704 100.376 7.768 99.16C7.992 95.736 8.776 92.136 10.12 88.36C11.464 84.584 13.32 81.4 15.688 78.808C18.056 76.216 20.776 74.92 23.848 74.92C25.48 74.92 26.936 75.352 28.216 76.216C29.528 77.048 30.536 78.152 31.24 79.528C31.976 80.872 32.344 82.28 32.344 83.752C32.344 84.84 31.96 85.704 31.192 86.344C30.424 86.984 29.448 87.304 28.264 87.304C27.272 87.304 26.2 87.064 25.048 86.584C25.112 85.816 25.144 85.304 25.144 85.048C25.144 83.832 24.968 82.92 24.616 82.312C24.296 81.704 23.832 81.4 23.224 81.4C22.2 81.4 21.032 82.52 19.72 84.76C18.408 86.968 17.256 89.72 16.264 93.016C15.304 96.312 14.76 99.464 14.632 102.472C17.768 102.44 21.304 101.672 25.24 100.168L25.432 97.96C24.792 98.024 24.264 98.056 23.848 98.056C22.856 98.056 21.992 97.96 21.256 97.768C20.52 97.576 20.088 97.288 19.96 96.904C19.832 96.616 19.768 96.184 19.768 95.608C19.768 94.84 19.864 94.04 20.056 93.208C20.28 92.376 20.52 91.816 20.776 91.528C21.224 91.016 21.768 90.68 22.408 90.52C23.08 90.36 24.056 90.28 25.336 90.28C27.768 90.28 29.464 90.824 30.424 91.912C31.416 92.968 31.912 94.536 31.912 96.616C31.912 98.184 31.624 100.312 31.048 103C30.472 105.656 29.768 107.992 28.936 110.008C28.104 112.024 27.304 113.032 26.536 113.032C25.896 113.032 25.176 112.888 24.376 112.6C23.608 112.312 22.952 111.944 22.408 111.496C21.864 111.08 21.592 110.696 21.592 110.344C21.624 109.832 21.8 109.224 22.12 108.52C22.472 107.816 22.84 107.192 23.224 106.648L22.744 106.168ZM54.5688 109.288C52.2968 107.976 50.2808 106.344 48.5208 104.392C46.7608 102.44 45.3368 100.216 44.2488 97.72L44.0568 99.736C43.7368 102.84 43.4168 105.16 43.0968 106.696C42.8088 108.232 42.3928 109 41.8488 109C41.1128 109 40.2328 108.728 39.2088 108.184C38.2168 107.64 37.3368 107 36.5688 106.264C35.8328 105.528 35.4648 104.92 35.4648 104.44C35.4648 103.608 36.2488 99.368 37.8168 91.72C38.0088 90.824 38.3128 89.304 38.7288 87.16C39.1768 84.984 39.4808 83.416 39.6408 82.456L37.8648 82.744C36.8728 81.816 36.3768 80.648 36.3768 79.24C36.3768 78.248 36.6488 77.224 37.1928 76.168C39.7848 75.496 42.4088 75.16 45.0648 75.16C47.8808 75.16 50.4888 75.528 52.8888 76.264C55.3208 77 57.2888 78.136 58.7928 79.672C60.2968 81.176 61.0488 83.064 61.0488 85.336C61.0488 87.992 60.0088 90.28 57.9288 92.2C55.8488 94.088 52.7928 95.352 48.7608 95.992C50.3608 97.496 51.9608 98.712 53.5608 99.64C55.1928 100.536 57.2408 101.4 59.7048 102.232C59.8328 102.744 59.8968 103.304 59.8968 103.912C59.8968 105.384 59.4488 106.6 58.5528 107.56C57.6568 108.52 56.3288 109.096 54.5688 109.288ZM45.1608 91.336C47.6888 91.08 49.7528 90.408 51.3528 89.32C52.9848 88.232 53.8008 86.936 53.8008 85.432C53.8008 84.472 53.3208 83.672 52.3608 83.032C51.4328 82.36 50.1688 82.024 48.5688 82.024C47.9928 82.024 47.3688 82.072 46.6968 82.168C46.1848 85.112 45.9448 86.52 45.9768 86.392C45.6888 87.96 45.4168 89.608 45.1608 91.336ZM86.4408 97.048C86.4728 97.56 86.5848 98.856 86.7768 100.936C87.0008 102.984 87.1128 104.696 87.1128 106.072C87.1128 107.864 86.9048 108.824 86.4888 108.952C86.3608 108.984 86.1528 109 85.8648 109C85.1608 109 84.2808 108.84 83.2248 108.52C82.2008 108.168 81.2728 107.736 80.4408 107.224C79.6408 106.712 79.1768 106.216 79.0488 105.736C78.9208 105.256 78.8568 103.24 78.8568 99.688C75.4008 100.104 73.1288 100.36 72.0408 100.456C71.1768 102.984 70.1848 105.752 69.0648 108.76C68.2008 108.952 67.4008 109.048 66.6648 109.048C65.3848 109.048 64.2968 108.744 63.4008 108.136C62.5367 107.496 61.9607 106.536 61.6727 105.256L62.6327 103.096C66.1528 95.256 69.1928 88.68 71.7528 83.368C74.3448 78.056 76.0248 75.4 76.7928 75.4C77.4008 75.4 78.2808 75.624 79.4328 76.072C80.6168 76.52 81.6728 77.064 82.6008 77.704C83.5608 78.344 84.1048 78.92 84.2328 79.432C84.4568 80.328 84.7608 82.2 85.1448 85.048C85.5288 87.896 85.8328 90.648 86.0568 93.304L86.4408 97.048ZM78.7128 82.888C77.3048 86.216 75.9128 89.784 74.5368 93.592C76.0088 93.496 77.4648 93.352 78.9048 93.16C78.9048 88.744 78.8408 85.32 78.7128 82.888ZM114.285 75.4C114.893 75.752 115.341 76.248 115.629 76.888C115.949 77.496 116.109 78.168 116.109 78.904C116.109 79.544 115.981 80.184 115.725 80.824C115.469 81.464 115.133 81.992 114.717 82.408C114.237 82.376 113.517 82.36 112.557 82.36C111.949 82.36 110.845 82.392 109.245 82.456L106.701 82.504C106.861 81.576 106.477 83.736 105.549 88.984L104.589 94.456C104.269 96.344 103.933 98.824 103.581 101.896C103.261 104.52 102.973 106.36 102.717 107.416C102.493 108.472 102.125 109 101.613 109C100.877 109 99.9973 108.744 98.9733 108.232C97.9813 107.688 97.1013 107.048 96.3333 106.312C95.5973 105.576 95.2293 104.968 95.2293 104.488C95.1973 103.752 95.5813 101.576 96.3813 97.96C96.9893 94.92 97.4213 92.664 97.6773 91.192C97.6773 91.256 97.9333 89.928 98.4453 87.208C98.8933 84.776 99.1653 83.288 99.2613 82.744L91.7733 83.656C91.1653 83.336 90.6693 82.872 90.2853 82.264C89.9333 81.624 89.7573 80.936 89.7573 80.2C89.7573 78.92 90.2533 77.784 91.2453 76.792C93.0693 76.536 95.3413 76.376 98.0613 76.312C100.813 76.216 102.445 76.152 102.957 76.12C106.317 76.024 108.765 75.944 110.301 75.88C111.869 75.784 113.197 75.624 114.285 75.4ZM121.264 109C120.528 109 119.648 108.744 118.624 108.232C117.632 107.688 116.752 107.048 115.984 106.312C115.248 105.576 114.88 104.968 114.88 104.488C114.848 103.976 114.992 102.904 115.312 101.272C115.664 99.608 115.888 98.536 115.984 98.056C116.112 97.416 116.352 96.248 116.704 94.552C117.056 92.824 117.344 91.224 117.568 89.752L117.952 87.496C118.56 83.912 119.12 81 119.632 78.76C120.176 76.52 120.72 75.4 121.264 75.4C121.872 75.4 122.688 75.672 123.712 76.216C124.768 76.76 125.68 77.4 126.448 78.136C127.248 78.872 127.648 79.512 127.648 80.056C127.648 80.344 127.344 81.624 126.736 83.896C125.616 87.928 124.784 91.448 124.24 94.456C123.92 96.344 123.584 98.824 123.232 101.896C122.912 104.52 122.624 106.36 122.368 107.416C122.144 108.472 121.776 109 121.264 109ZM152.233 75.4C152.841 75.752 153.289 76.248 153.577 76.888C153.897 77.496 154.057 78.168 154.057 78.904C154.057 79.544 153.929 80.184 153.673 80.824C153.417 81.464 153.081 81.992 152.665 82.408C149.017 82.472 145.577 82.632 142.345 82.888C142.185 83.56 141.849 85.048 141.337 87.352C141.273 87.64 141.065 88.648 140.713 90.376C144.137 90.088 146.841 89.704 148.825 89.224C149.465 89.608 149.945 90.12 150.265 90.76C150.617 91.368 150.793 92.04 150.793 92.776C150.793 93.448 150.649 94.088 150.361 94.696C150.105 95.272 149.737 95.736 149.257 96.088C148.649 96.152 148.041 96.2 147.433 96.232C146.857 96.264 146.297 96.296 145.753 96.328L139.753 96.76C139.497 98.392 139.241 100.328 138.985 102.568C138.697 104.968 138.441 106.648 138.217 107.608C137.993 108.536 137.625 109 137.113 109C136.313 109 135.401 108.728 134.377 108.184C133.385 107.608 132.521 106.952 131.785 106.216C131.081 105.448 130.729 104.824 130.729 104.344C130.729 103.864 130.889 102.808 131.209 101.176C131.561 99.544 131.945 97.784 132.361 95.896C133.801 89.688 134.649 85.432 134.905 83.128L132.889 83.272C132.281 82.952 131.785 82.488 131.401 81.88C131.049 81.24 130.873 80.552 130.873 79.816C130.873 78.536 131.369 77.4 132.361 76.408C136.745 76.344 140.553 76.248 143.785 76.12C147.049 75.992 149.865 75.752 152.233 75.4ZM159.654 109C158.918 109 158.038 108.744 157.014 108.232C156.022 107.688 155.142 107.048 154.374 106.312C153.638 105.576 153.27 104.968 153.27 104.488C153.238 103.976 153.382 102.904 153.702 101.272C154.054 99.608 154.278 98.536 154.374 98.056C154.502 97.416 154.742 96.248 155.094 94.552C155.446 92.824 155.734 91.224 155.958 89.752L156.342 87.496C156.95 83.912 157.51 81 158.022 78.76C158.566 76.52 159.11 75.4 159.654 75.4C160.262 75.4 161.078 75.672 162.102 76.216C163.158 76.76 164.07 77.4 164.838 78.136C165.638 78.872 166.038 79.512 166.038 80.056C166.038 80.344 165.734 81.624 165.126 83.896C164.006 87.928 163.174 91.448 162.63 94.456C162.31 96.344 161.974 98.824 161.622 101.896C161.302 104.52 161.014 106.36 160.758 107.416C160.534 108.472 160.166 109 159.654 109ZM187.408 75.928C189.2 75.864 190.608 76.232 191.632 77.032C192.688 77.8 193.216 78.872 193.216 80.248C193.216 80.792 193.152 81.304 193.024 81.784C188.8 86.648 184.064 90.52 178.816 93.4C180.608 95.128 182.64 96.728 184.912 98.2C187.216 99.672 189.424 100.824 191.536 101.656C191.632 102.168 191.68 102.68 191.68 103.192C191.68 104.696 191.232 105.992 190.336 107.08C189.472 108.136 188.224 108.776 186.592 109C184.256 107.624 182.256 106.04 180.592 104.248C178.928 102.424 177.232 100.152 175.504 97.432C175.216 101.528 174.928 104.488 174.64 106.312C174.352 108.104 173.888 109 173.248 109C172.512 109 171.632 108.744 170.608 108.232C169.616 107.688 168.736 107.048 167.968 106.312C167.232 105.576 166.864 104.968 166.864 104.488C166.832 103.976 166.976 102.904 167.296 101.272C167.648 99.608 167.872 98.536 167.968 98.056C168.096 97.416 168.336 96.248 168.688 94.552C169.04 92.824 169.328 91.224 169.552 89.752L169.936 87.496C170.544 83.912 171.104 81 171.616 78.76C172.16 76.52 172.704 75.4 173.248 75.4C173.856 75.4 174.672 75.672 175.696 76.216C176.752 76.76 177.664 77.4 178.432 78.136C179.232 78.872 179.632 79.512 179.632 80.056C179.632 80.408 179.344 81.512 178.768 83.368C178.192 85.224 177.648 86.824 177.136 88.168C179.056 86.536 180.752 84.792 182.224 82.936C183.728 81.08 185.456 78.744 187.408 75.928ZM218.113 97.048C218.145 97.56 218.257 98.856 218.449 100.936C218.673 102.984 218.785 104.696 218.785 106.072C218.785 107.864 218.577 108.824 218.161 108.952C218.033 108.984 217.825 109 217.537 109C216.833 109 215.953 108.84 214.897 108.52C213.873 108.168 212.945 107.736 212.113 107.224C211.313 106.712 210.849 106.216 210.721 105.736C210.593 105.256 210.529 103.24 210.529 99.688C207.073 100.104 204.801 100.36 203.713 100.456C202.849 102.984 201.857 105.752 200.737 108.76C199.873 108.952 199.073 109.048 198.337 109.048C197.057 109.048 195.969 108.744 195.073 108.136C194.209 107.496 193.633 106.536 193.345 105.256L194.305 103.096C197.825 95.256 200.865 88.68 203.425 83.368C206.017 78.056 207.697 75.4 208.465 75.4C209.073 75.4 209.953 75.624 211.105 76.072C212.289 76.52 213.345 77.064 214.273 77.704C215.233 78.344 215.777 78.92 215.905 79.432C216.129 80.328 216.433 82.2 216.817 85.048C217.201 87.896 217.505 90.648 217.729 93.304L218.113 97.048ZM210.385 82.888C208.977 86.216 207.585 89.784 206.209 93.592C207.681 93.496 209.137 93.352 210.577 93.16C210.577 88.744 210.513 85.32 210.385 82.888ZM237.237 87.352C237.493 85.752 237.621 84.472 237.621 83.512C237.621 82.84 237.557 82.312 237.429 81.928C237.333 81.544 237.205 81.352 237.045 81.352C236.565 81.352 236.005 81.752 235.365 82.552C234.757 83.352 234.229 84.312 233.781 85.432C233.365 86.52 233.157 87.496 233.157 88.36C233.157 89.448 233.685 90.552 234.741 91.672C235.829 92.76 237.413 94.104 239.493 95.704C241.061 96.856 242.229 97.816 242.997 98.584C243.765 99.32 244.165 99.992 244.197 100.6C244.229 101.944 243.525 103.272 242.085 104.584C240.645 105.864 238.837 106.92 236.661 107.752C234.517 108.584 232.517 109 230.661 109C229.221 109 227.733 108.648 226.197 107.944C224.661 107.208 223.381 106.36 222.357 105.4C221.333 104.408 220.805 103.544 220.773 102.808C220.709 101.4 221.173 100.264 222.165 99.4C223.157 98.504 224.485 98.056 226.149 98.056C226.981 98.056 227.829 98.168 228.693 98.392C229.077 100.504 229.413 102.024 229.701 102.952C231.589 102.472 233.637 101.64 235.845 100.456C228.709 95.048 225.141 90.824 225.141 87.784C225.141 86.312 225.685 84.552 226.773 82.504C227.861 80.424 229.301 78.648 231.093 77.176C232.885 75.672 234.773 74.92 236.757 74.92C238.229 74.92 239.653 75.416 241.029 76.408C242.405 77.4 243.525 78.616 244.389 80.056C245.253 81.496 245.685 82.84 245.685 84.088C245.685 85.304 245.189 86.28 244.197 87.016C243.237 87.72 242.037 88.072 240.597 88.072C239.477 88.072 238.357 87.832 237.237 87.352ZM252.982 109C252.246 109 251.366 108.744 250.342 108.232C249.35 107.688 248.47 107.048 247.702 106.312C246.966 105.576 246.598 104.968 246.598 104.488C246.566 103.976 246.71 102.904 247.03 101.272C247.382 99.608 247.606 98.536 247.702 98.056C247.83 97.416 248.07 96.248 248.422 94.552C248.774 92.824 249.062 91.224 249.286 89.752L249.67 87.496C250.278 83.912 250.838 81 251.35 78.76C251.894 76.52 252.438 75.4 252.982 75.4C253.59 75.4 254.406 75.672 255.43 76.216C256.486 76.76 257.398 77.4 258.166 78.136C258.966 78.872 259.366 79.512 259.366 80.056C259.366 80.344 259.062 81.624 258.454 83.896C257.334 87.928 256.502 91.448 255.958 94.456C255.638 96.344 255.302 98.824 254.95 101.896C254.63 104.52 254.342 106.36 254.086 107.416C253.862 108.472 253.494 109 252.982 109Z" fill="white"/>
<defs>
<filter id="filter0_d" x="98" y="13" width="113.474" height="113.256" filterUnits="userSpaceOnUse" color-interpolation-filters="sRGB">
<feFlood flood-opacity="0" result="BackgroundImageFix"/>
<feColorMatrix in="SourceAlpha" type="matrix" values="0 0 0 0 0 0 0 0 0 0 0 0 0 0 0 0 0 0 127 0"/>
<feOffset dx="2" dy="2"/>
<feGaussianBlur stdDeviation="2"/>
<feColorMatrix type="matrix" values="0 0 0 0 0 0 0 0 0 0 0 0 0 0 0 0 0 0 0.25 0"/>
<feBlend mode="normal" in2="BackgroundImageFix" result="effect1_dropShadow"/>
<feBlend mode="normal" in="SourceGraphic" in2="effect1_dropShadow" result="shape"/>
</filter>
<linearGradient id="paint0_linear" x1="102.714" y1="24.2873" x2="177.369" y2="115.764" gradientUnits="userSpaceOnUse">
<stop stop-color="#FF0000"/>
<stop offset="1" stop-color="#B00404"/>
</linearGradient>
</defs>
</svg>
